# xmcd
#
# Track frame offsets:
#	150
#	32181
#	63443
#	98233
#	126423
#	156969
#	189660
#	220431
#	256159
#
# Disc length: 3832 seconds
#
# Revision: 7
# Processed by: cddbd v1.5.2PL0 Copyright (c) Steve Scherf et al.
# Submitted via: audiograbber 1.83.01
#
DISCID=850ef609
DTITLE=Various Artist - Trucker and Country Hits CD 5
DYEAR=1995
DGENRE=Country
TTITLE0=Mix 1
TTITLE1=Mix 2
TTITLE2=Mix 3
TTITLE3=Mix 4
TTITLE4=Mix 5
TTITLE5=Mix 6
TTITLE6=Mix 7
TTITLE7=Mix 8
TTITLE8=Mix 9
EXTD=
EXTT0=
EXTT1=
EXTT2=
EXTT3=
EXTT4=
EXTT5=
EXTT6=
EXTT7=
EXTT8=
PLAYORDER=
